# xmcd
#
# Track frame offsets:
#	150
#	14536
#	35427
#	67928
#	78907
#	93772
#	98334
#	118378
#	140065
#	152488
#	176262
#	205082
#	220313
#	244533
#
# Disc length: 3646
#
# Revision: 4
# Processed by: cddbd v1.5.1PL0 Copyright (c) Steve Scherf et al.
# Submitted via: CDex 1.51
# Normalized: r3:TRMNUM
#
DISCID=ad0e3c0e
DTITLE=Reverend Blues Gang - Superstition
DYEAR=2003
DGENRE=Blues
TTITLE0=rock me baby
TTITLE1=rebel gang
TTITLE2=fade to blue
TTITLE3=waitin' for the bus
TTITLE4=jesus just left chicago
TTITLE5=claffrica
TTITLE6=superstition
TTITLE7=live wire
TTITLE8=i can't hold out
TTITLE9=the world is dying
TTITLE10=the butcher and fast eddy
TTITLE11=la grange
TTITLE12=louisiana blues
TTITLE13=
EXTD=YEAR: 2003
EXTT0=
EXTT1=
EXTT2=
EXTT3=
EXTT4=
EXTT5=
EXTT6=
EXTT7=
EXTT8=
EXTT9=
EXTT10=
EXTT11=
EXTT12=
EXTT13=
PLAYORDER=
